<svg xmlns="http://www.w3.org/2000/svg" viewBox="0 0 24 24" id="budget">
  <defs>
    <linearGradient id="a" x1="1.767" x2="17.592" y1="20.592" y2="4.767" gradientUnits="userSpaceOnUse">
      <stop offset="0" stop-color="#5433ff"></stop>
      <stop offset="1" stop-color="#20bdff"></stop>
    </linearGradient>
  </defs>
  <path fill="url(#a)" d="m15,8.25c-3.722,0-6.75,3.028-6.75,6.75s3.028,6.75,6.75,6.75,6.75-3.028,6.75-6.75-3.028-6.75-6.75-6.75Zm-1,6.25h2c.827,0,1.5.673,1.5,1.5s-.673,1.5-1.5,1.5h-.5v1c0,.276-.224.5-.5.5s-.5-.224-.5-.5v-1h-1.5c-.276,0-.5-.224-.5-.5s.224-.5.5-.5h3c.276,0,.5-.225.5-.5s-.224-.5-.5-.5h-2c-.827,0-1.5-.673-1.5-1.5s.673-1.5,1.5-1.5h.5v-1c0-.276.224-.5.5-.5s.5.224.5.5v1h1.5c.276,0,.5.224.5.5s-.224.5-.5.5h-3c-.276,0-.5.225-.5.5s.224.5.5.5ZM2,6v-2c0-1.1.9-2,2-2h10c1.1,0,2,.9,2,2v2c0,.28-.06.55-.16.79-.27-.03-.56-.04-.84-.04-1.22,0-2.39.27-3.43.75h-7.57c-.38,0-.75.06-1.09.18-.55-.36-.91-.98-.91-1.68Zm0,7v-2c0-1.1.9-2,2-2h5.35c-1.6,1.5-2.6,3.64-2.6,6h-2.75c-1.1,0-2-.9-2-2Zm8.64,9h-6.64c-1.1,0-2-.9-2-2v-2c0-.7.36-1.32.91-1.68.34.12.71.18,1.09.18h2.89c.43,2.32,1.82,4.3,3.75,5.5Z"></path>
</svg>
